<?xml version="1.0" standalone="no"?>
<!DOCTYPE svg PUBLIC "-//W3C//DTD SVG 20010904//EN"
 "http://www.w3.org/TR/2001/REC-SVG-20010904/DTD/svg10.dtd">
<svg version="1.0" xmlns="http://www.w3.org/2000/svg"
 width="300.000000pt" height="300.000000pt" viewBox="0 0 300.000000 300.000000"
 preserveAspectRatio="xMidYMid meet">
<metadata>
Created by potrace 1.10, written by Peter Selinger 2001-2011
</metadata>
<g transform="translate(0.000000,300.000000) scale(0.100000,-0.100000)"
fill="#000000" stroke="none">
<path d="M2501 2879 c-48 -25 -64 -47 -184 -259 -66 -117 -77 -143 -77 -183 0
-45 15 -93 41 -127 8 -12 -6 -44 -70 -155 -45 -77 -87 -140 -94 -140 -6 0 -37
4 -68 9 -185 27 -409 -137 -485 -353 l-23 -66 -102 0 -101 0 -97 167 c-53 92
-112 183 -131 203 -46 47 -125 84 -199 91 l-60 7 -185 322 c-103 177 -198 332
-212 346 -22 20 -36 24 -89 24 -57 0 -67 -3 -95 -30 -41 -39 -55 -92 -37 -142
8 -21 95 -179 195 -351 l181 -312 -24 -52 c-38 -83 -42 -177 -9 -261 5 -15 -4
-17 -82 -17 -110 0 -152 -11 -190 -51 -26 -27 -29 -38 -33 -111 -9 -199 68
-444 200 -643 104 -155 291 -316 462 -396 l67 -31 -28 -26 c-62 -58 -62 -149
-2 -207 l31 -30 425 -3 c370 -2 428 -1 454 13 78 40 94 154 31 219 l-33 34 74
35 c112 55 194 113 291 206 224 216 345 474 363 776 5 85 3 105 -13 135 -28
53 -89 80 -184 80 l-77 0 -4 88 c-5 99 -27 159 -84 229 l-36 44 82 144 81 144
54 0 c101 0 127 25 254 248 86 151 92 165 92 218 0 65 -19 104 -74 148 -51 42
-132 48 -196 16z m150 -98 c47 -48 41 -73 -62 -253 -51 -87 -101 -165 -113
-173 -24 -17 -69 -19 -97 -5 -22 12 -49 60 -49 87 0 27 167 313 201 346 40 37
82 36 120 -2z m-2253 -113 c5 -7 94 -159 197 -338 102 -179 193 -332 201 -341
11 -12 32 -16 77 -16 77 1 145 -29 184 -80 14 -19 80 -127 145 -240 81 -140
118 -215 116 -231 -2 -20 -33 -42 -173 -123 -123 -72 -178 -99 -198 -97 -26 3
-41 25 -160 232 -128 224 -132 231 -135 297 -4 62 -1 74 27 124 17 30 31 62
31 71 0 9 -88 168 -195 354 -107 186 -195 347 -195 357 0 38 54 59 78 31z
m1513 -804 c-102 -112 -188 -258 -232 -394 -11 -36 -23 -71 -25 -79 -7 -21
-13 -9 -24 46 -33 176 106 415 278 478 65 24 65 17 3 -51z m217 -2 c9 -96
-123 -374 -241 -509 -42 -48 -105 -93 -130 -93 -18 0 -19 5 -15 68 10 138 124
355 260 495 59 61 82 78 100 75 18 -2 24 -10 26 -36z m109 -174 c15 -162 -93
-352 -239 -421 -101 -48 -108 -46 -49 19 110 123 219 317 252 450 15 58 27 41
36 -48z m-1493 -367 c56 -97 114 -183 129 -195 20 -14 43 -21 75 -21 41 0 69
13 222 100 96 55 187 110 202 123 35 30 52 90 39 137 l-9 35 63 0 63 0 12 -67
c29 -169 114 -267 255 -292 188 -35 418 111 493 314 l16 45 91 0 c95 0 107 -4
119 -34 11 -30 -13 -209 -40 -304 -116 -407 -462 -712 -873 -773 -121 -17
-302 -7 -424 25 -117 30 -259 95 -361 166 -87 60 -224 199 -280 283 -96 146
-160 337 -172 512 -9 129 -13 126 149 123 l130 -3 101 -174z m1104 -1053 c17
-17 15 -44 -4 -62 -13 -14 -64 -16 -408 -16 -291 0 -395 3 -404 12 -15 15 -15
51 0 66 17 17 799 17 816 0z"/>
<path d="M562 1078 c-7 -7 -12 -20 -12 -30 0 -51 110 -207 217 -308 84 -80
115 -94 141 -68 26 26 11 53 -67 125 -68 63 -133 147 -205 266 -18 29 -53 36
-74 15z"/>
<path d="M986 644 c-30 -30 -13 -74 29 -74 44 0 63 60 26 80 -27 14 -37 13
-55 -6z"/>
</g>
</svg>
